<svg xmlns="http://www.w3.org/2000/svg" viewBox="0 0 120 120">
  <!-- Background and definitions -->
  <defs>
    <linearGradient id="bgGradient" x1="0%" y1="0%" x2="100%" y2="100%">
      <stop offset="0%" stop-color="#282c34" />
      <stop offset="100%" stop-color="#20232a" />
    </linearGradient>
    <linearGradient id="reactGradient" x1="0%" y1="0%" x2="100%" y2="100%">
      <stop offset="0%" stop-color="#61DAFB" />
      <stop offset="100%" stop-color="#00b0ff" />
    </linearGradient>
    <filter id="glow" x="-20%" y="-20%" width="140%" height="140%">
      <feGaussianBlur stdDeviation="2" result="blur" />
      <feComposite in="SourceGraphic" in2="blur" operator="over" />
    </filter>
  </defs>
  
  <!-- Square background -->
  <rect x="10" y="10" width="100" height="100" rx="15" fill="url(#bgGradient)" />
  
  <!-- Integrated React and Preview Design -->
  <g transform="translate(60, 60)">
    <!-- Monitor/preview frame that also acts as orbital path -->
    <rect x="-35" y="-35" width="70" height="70" rx="8" fill="none" stroke="#61DAFB" stroke-width="1.5" stroke-opacity="0.7" />
    
    <!-- Window top bar -->
    <rect x="-35" y="-35" width="70" height="12" rx="8" ry="8" fill="rgba(97, 218, 251, 0.2)" />
    
    <!-- Window control dots -->
    <circle cx="-25" cy="-29" r="2" fill="#FF5F57" />
    <circle cx="-18" cy="-29" r="2" fill="#FEBC2E" />
    <circle cx="-11" cy="-29" r="2" fill="#28C840" />
    
    <!-- Orbital paths that both complement the square frame and extend beyond it -->
    <ellipse cx="0" cy="0" rx="30" ry="20" fill="none" stroke="url(#reactGradient)" stroke-width="1.5" transform="rotate(-30)" />
    <ellipse cx="0" cy="0" rx="30" ry="20" fill="none" stroke="url(#reactGradient)" stroke-width="1.5" transform="rotate(30)" />
    <ellipse cx="0" cy="0" rx="30" ry="20" fill="none" stroke="url(#reactGradient)" stroke-width="1.5" transform="rotate(90)" />
    
    <!-- Content lines that intersect with orbits -->
    <line x1="-25" y1="-15" x2="25" y2="-15" stroke="#888" stroke-width="1.5" />
    <line x1="-25" y1="0" x2="20" y2="0" stroke="#888" stroke-width="1.5" />
    <line x1="-25" y1="15" x2="25" y2="15" stroke="#888" stroke-width="1.5" />
    
    <!-- Central React atom with glow effect -->
    <circle cx="0" cy="0" r="8" fill="#61DAFB" filter="url(#glow)" />
    
    <!-- Small atoms representing preview output/components -->
    <circle cx="-20" cy="-15" r="3" fill="#61DAFB" opacity="0.8" />
    <circle cx="20" cy="0" r="3" fill="#61DAFB" opacity="0.7" />
    <circle cx="-15" cy="15" r="3" fill="#61DAFB" opacity="0.9" />
    
    <!-- Subtle corner coding brackets suggesting JSX -->
    <path d="M-30,-20 L-25,-15 L-30,-10" fill="none" stroke="#61DAFB" stroke-width="1.2" />
    <path d="M30,-20 L25,-15 L30,-10" fill="none" stroke="#61DAFB" stroke-width="1.2" />
  </g>
</svg>